<?xml version="1.0" encoding="UTF-8" standalone="no"?>
<svg viewBox="0 0 198.21504 248.32893" xmlns="http://www.w3.org/2000/svg">
<defs>
<filter id="filter4012">
<feGaussianBlur stdDeviation=".70324"/>
</filter>
<filter height="1.16119" id="filter3927" width="1.21944" x="-.10972" y="-.0806">
<feGaussianBlur stdDeviation="3.29792"/>
</filter>
<filter height="1.16842" id="filter3951" width="1.20471" x="-.10235" y="-.08421">
<feGaussianBlur stdDeviation="3.21851"/>
</filter>
<filter height="1.50174" id="filter4042" width="2.17406" x="-.58703" y="-.25087">
<feGaussianBlur stdDeviation="8.73557"/>
</filter>
</defs>
<title>Tony il cane</title>
<g transform="translate(-156.61572,-206.44295)">
<g transform="translate(127.27923,53.53809)">
<path d="m347.14285,355.93362c0,41.42136-49.88827,75-111.42857,75s-111.42857-33.57864-111.42857-75 49.88827-75 111.42857-75 111.42857,33.57865 111.42857,75z" fill="#fff" stroke="#ccc" stroke-width="2.46" transform="matrix(-.21876,.44949,-.44949,-.21876,396.88599,178.14702)"/>
<path d="m347.14285,355.93362c0,41.42136-49.88827,75-111.42857,75s-111.42857-33.57864-111.42857-75 49.88827-75 111.42857-75 111.42857,33.57865 111.42857,75z" fill="#fff" stroke="#ccc" stroke-width="2.46" transform="matrix(-.19493,.39855,-.33603,-.16259,348.31377,175.28171)"/>
<path d="m347.14285,355.93362c0,41.42136-49.88827,75-111.42857,75s-111.42857-33.57864-111.42857-75 49.88827-75 111.42857-75 111.42857,33.57865 111.42857,75z" fill="#fff" stroke="#ccc" stroke-width="2.46" transform="matrix(.27769,.41567,-.41567,.27769,156.37345,12.23199)"/>
<path d="m347.14285,355.93362c0,41.42136-49.88827,75-111.42857,75s-111.42857-33.57864-111.42857-75 49.88827-75 111.42857-75 111.42857,33.57865 111.42857,75z" fill="#fff" stroke="#ccc" stroke-width="2.46" transform="matrix(.24574,.3694,-.30993,.20808,129.39098,52.7217)"/>
<path d="m347.14285,355.93362c0,41.42136-49.88827,75-111.42857,75s-111.42857-33.57864-111.42857-75 49.88827-75 111.42857-75 111.42857,33.57865 111.42857,75z" fill="#deaa87" stroke="#000" stroke-width="2.46" transform="matrix(0,.85735,-.85735,0,434.093,101.17335)"/>
<path d="m185.38693,253.72477c-.28276-.89092-.0472-1.53053.77601-2.10714 12.32479-8.63261 23.28767-25.37856 28.0244-42.80759 6.2279-22.91591.65429-40.79003-13.67782-43.86373-12.7304-2.73016-30.35423,9.99605-41.60463,30.04284-2.24346,3.99757-6.02163,12.81282-6.57884,15.34985-.21712.98849-.47562,1.79726-.57446,1.79726s-1.44612-.56021-2.99398-1.2449c-2.67072-1.18138-2.79529-1.34542-2.44162-3.21508 .81658-4.31697 4.16214-13.30851 7.05418-18.95888 10.87771-21.25255 29.42093-34.9032 46.21553-34.02172 18.30508.96077 29.28025,19.95905 25.67523,44.44436-3.33277,22.63611-17.16086,44.01431-34.70221,53.64955-2.21729,1.21792-4.19666,2.2144-4.3986,2.2144s-.54989-.57564-.77319-1.27922z" fill="#c87137" stroke="#000" stroke-width="1.50649"/>
<path d="m66.56354,251.79112c-7.25022-4.26249-18.12745-14.95606-23.38081-22.98604-14.89525-22.76798-16.33279-48.99508-3.39314-61.90571 1.98912-1.98467 5.14764-4.31498 7.21305-5.32171 3.48531-1.69882 4.08403-1.79112 11.63553-1.79364 7.17046-.003 8.4119.16405 12.49946,1.67601 14.4965,5.36218 27.56239,17.18684 36.64243,33.16149 2.06188,3.62749 6.46985,13.85463 6.12154,14.20293-.095.095-1.45571.72276-3.02367,1.39486l-2.85081,1.222-.67927-1.949c-2.19687-6.30343-11.65267-19.40357-18.90001-26.18426-9.67963-9.05633-18.26803-13.41873-27.36009-13.8973-5.98469-.31502-8.29445.29018-12.68849,3.3246-9.50421,6.56336-10.45472,25.86878-2.18421,44.36297 5.78482,12.9358 16.30937,26.29964 26.05711,33.08678 1.28016.89134 1.32408,1.11247.57492,2.89419l-.81113,1.92913-5.4724-3.2173z" fill="#c87137" stroke="#000" stroke-width="1.50649"/>
<path d="m119.17558,353.16547c-18.51735-15.34064-30.97738-36.86817-33.62687-58.09802-.69656-5.58139-.6937-8.01732.01393-11.85774 1.68083-9.12221 4.96163-14.01969 11.79403-17.6058 3.99773-2.09828 12.58899-2.05087 18.59748.10263 13.94806,4.99911 29.90281,19.60146 39.50001,36.1518 1.59467,2.75 3.38182,6.16034 3.97144,7.57852l1.07205,2.57853-4.66297,3.06573c-11.96717,7.86795-21.62784,19.03787-29.87681,34.54432-1.80274,3.38881-3.35428,6.16147-3.44786,6.16147s-1.59408-1.17965-3.33443-2.62144z" fill="#784421" filter="url(#filter3951)" stroke="#ccc" stroke-width="1.75714" transform="matrix(.85735,0,0,.85735,-31.02634,-55.54321)"/>
<path d="m248.59493,352.39405c-7.47951-15.24281-17.73153-27.84991-29.19078-35.89646-2.45536-1.72412-4.46429-3.40503-4.46429-3.73536s1.13743-3.54578 2.52762-7.14544c7.68319-19.89431 21.48439-36.61675 36.04381-43.67305 5.66245-2.74433 6.48041-2.94197 12.14286-2.93397 4.85555.007 6.65715.32028 8.9962,1.56506 16.23914,8.64207 16.61447,39.7288.83046,68.78351-5.18771,9.54937-12.9625,19.19209-19.8152,24.57588-2.29709,1.80469-4.2954,3.28126-4.44069,3.28126s-1.32878-2.16964-2.62999-4.82143z" fill="#784421" filter="url(#filter3927)" stroke="#ccc" stroke-width="1.75714" transform="matrix(.85735,0,0,.85735,-31.02634,-55.54321)"/>
<path d="m114.77415,216.96937c-14.13942,0-25.60169,14.02239-25.60169,31.31679s11.46227,31.31681 25.60169,31.31681c4.87438,0 9.43477-1.66578 13.3129-4.55788 3.87936,2.89473 8.43611,4.55788 13.31289,4.55788 14.13942,0 25.60169-14.02239 25.60169-31.31681s-11.46227-31.31679-25.60169-31.31679c-4.87697,0-9.43342,1.67173-13.31289,4.56666-3.87819-2.89224-8.43839-4.56666-13.3129-4.56666z" fill="#e9c6af" stroke="#000" stroke-width=".76192"/>
<path d="m347.14285,355.93362c0,41.42136-49.88827,75-111.42857,75s-111.42857-33.57864-111.42857-75 49.88827-75 111.42857-75 111.42857,33.57865 111.42857,75z" fill="#fff" stroke="#000" stroke-width="2.46" transform="matrix(0,.20668,-.20668,0,187.21184,200.47223)"/>
<path d="m347.14285,355.93362c0,41.42136-49.88827,75-111.42857,75s-111.42857-33.57864-111.42857-75 49.88827-75 111.42857-75 111.42857,33.57865 111.42857,75z" stroke="#000" stroke-width="2.46" transform="matrix(0,.08468,-.08468,0,145.19452,240.45509)"/>
<path d="m347.14285,355.93362c0,41.42136-49.88827,75-111.42857,75s-111.42857-33.57864-111.42857-75 49.88827-75 111.42857-75 111.42857,33.57865 111.42857,75z" fill="#fff" stroke="#000" stroke-width="2.46" transform="matrix(0,.03326,-.03326,0,129.13252,256.69211)"/>
<path d="m347.14285,355.93362c0,41.42136-49.88827,75-111.42857,75s-111.42857-33.57864-111.42857-75 49.88827-75 111.42857-75 111.42857,33.57865 111.42857,75z" fill="#fff" stroke="#000" stroke-width="2.46" transform="matrix(0,.20668,-.20668,0,219.21184,200.47223)"/>
<path d="m347.14285,355.93362c0,41.42136-49.88827,75-111.42857,75s-111.42857-33.57864-111.42857-75 49.88827-75 111.42857-75 111.42857,33.57865 111.42857,75z" stroke="#000" stroke-width="2.46" transform="matrix(0,.08468,-.08468,0,178.91813,242.29228)"/>
<path d="m347.14285,355.93362c0,41.42136-49.88827,75-111.42857,75s-111.42857-33.57864-111.42857-75 49.88827-75 111.42857-75 111.42857,33.57865 111.42857,75z" fill="#fff" stroke="#000" stroke-width="2.46" transform="matrix(0,.03326,-.03326,0,162.85613,258.5293)"/>
<path d="m347.14285,355.93362c0,41.42136-49.88827,75-111.42857,75s-111.42857-33.57864-111.42857-75 49.88827-75 111.42857-75 111.42857,33.57865 111.42857,75z" fill="#deaa87" stroke="#000" stroke-width="2.46" transform="matrix(.85735,0,0,.85735,-73.64912,30.72253)"/>
<path d="m347.14285,355.93362c0,41.42136-49.88827,75-111.42857,75s-111.42857-33.57864-111.42857-75 49.88827-75 111.42857-75 111.42857,33.57865 111.42857,75z" transform="matrix(.41162,0,0,.41162,30.63009,174.03519)"/>
<path d="m128.51638,469.8256c-.48935,2.26612-.73619,4.58638-.73619,6.95535 0,24.00837 26.10579,43.47099 58.32333,43.47099s58.33969-19.46262 58.33969-43.47099c0-2.36993-.26282-4.68834-.75256-6.95535-4.46495,20.7043-28.54442,36.51562-57.58713,36.51562s-53.12384-15.80989-57.58714-36.51562z" filter="url(#filter4012)" stroke="#000" stroke-width="1.3551" transform="matrix(.85735,0,0,.85735,-31.02634,-55.54321)"/>
<path d="m79.1578,343.83465c-.41954,1.75483-.63117,3.5516-.63117,5.38609 0,18.59165 22.38192,33.66315 50.00379,33.66315s50.01782-15.0715 50.01782-33.66315c0-1.83524-.22533-3.63056-.64521-5.38609-3.82805,16.03303-24.4727,28.27703-49.37261,28.27703s-45.54598-12.24289-49.37262-28.27703z" fill="#fff" stroke="#000" stroke-width="1.10415"/>
<path d="m286.42859,447.71933c0,23.07761-7.99492,41.78571-17.85715,41.78571s-17.85714-18.7081-17.85714-41.78571 7.99491-41.78571 17.85714-41.78571 17.85715,18.7081 17.85715,41.78571z" fill="#ffe6d5" filter="url(#filter4042)" transform="matrix(.71967,0,0,.85735,-129.88585,-51.74635)"/>
</g>
</g>
</svg>
